<svg width="32" height="32" viewBox="0 0 32 32" fill="none" xmlns="http://www.w3.org/2000/svg">
<g clip-path="url(#clip0_1_13649)">
<path d="M22.1356 25.2715C18.835 27.17 14.2967 27.3651 9.73079 25.4166C6.03387 23.8504 2.96639 21.109 1 17.9767C1.94387 18.7598 3.04503 19.3865 4.22484 19.9344C8.9401 22.135 13.6544 21.9843 16.972 19.94C12.2526 16.3374 8.23626 11.6326 5.2475 7.79546C4.61799 7.16887 -1.02806 6.70482 -1.5 5.99999C2.11813 9.2893 13.0343 13.1207 15.0789 14.296C10.7535 9.7532 5.09049 1.84367 5.2475 2C4.74273 7.54939 20.2707 15.079 20.2707 15.079C20.4815 15.1973 20.6442 15.2959 20.775 15.384C20.9129 15.0347 21.0338 14.672 21.1357 14.296C22.2368 10.3018 20.9787 5.759 18.2254 1.99999C24.5962 5.83751 28.3721 13.0425 26.7985 19.0732C26.7575 19.2359 26.7129 19.3965 26.6648 19.5542C29.8106 23.4702 29.0008 27.6884 28.6076 26.9053C26.901 23.5801 23.7418 24.5969 22.1356 25.2715Z" fill="black"/>
</g>
<defs>
<clipPath id="clip0_1_13649">
<rect width="32" height="32" fill="black"/>
</clipPath>
</defs>
</svg>
